<svg id="근교투어" xmlns="http://www.w3.org/2000/svg" viewBox="0 0 85.04 85.04"><defs><style>.cls-1{fill:#fff;}.cls-1,.cls-2{stroke:#231f20;stroke-miterlimit:10;stroke-width:2px;}.cls-2{fill:none;stroke-linecap:round;}</style></defs><title>현대관광아이콘_아트보드</title><path class="cls-1" d="M37.73,65.3c-1.89.06-3.67.16-5.34.29"/><path class="cls-1" d="M42.33,50.05A6.31,6.31,0,0,0,44,42.52a5.88,5.88,0,0,0,.72-.51,6.28,6.28,0,0,0-2.22-10.84,6.29,6.29,0,0,0-10.34-4.82,6.24,6.24,0,0,0-.68.68,6.28,6.28,0,0,0-10.07,4.89,6.48,6.48,0,0,0-2.2,1.19A6.29,6.29,0,0,0,18,41.39a6.29,6.29,0,0,0,7.05,9,6.23,6.23,0,0,0,7.37,4V65.59c1.67-.13,3.45-.23,5.34-.29V51.49A6.27,6.27,0,0,0,42.33,50.05Z"/><path class="cls-1" d="M55.73,66.07q-2.74-.31-5.34-.51"/><path class="cls-1" d="M68.73,51.77s-.59-5.67-2.59-8.42V37.94l-4.08-5.67V28s-3.58-8.17-8.83-11.25c0,0-6.59,4-9,11.33v3.67l-2.75,4a14.59,14.59,0,0,0-1.25,7.75s-3,3.83-2.5,8.25c0,0,1.09,4.28,12.66,4.85v8.94q2.59.19,5.34.51V56.62C67.35,56.05,68.73,51.77,68.73,51.77Z"/><path class="cls-2" d="M16.31,68.27s21.75-6.83,52.42,0"/></svg>