<svg xmlns="http://www.w3.org/2000/svg" viewBox="0 0 85.04 85.04"><defs><style>.cls-1{fill:#fff;stroke:#231f20;stroke-miterlimit:10;stroke-width:2px;}.cls-2{fill:#231f20;}</style></defs><title>현대관광아이콘_아트보드</title><g id="버스견적문의"><rect class="cls-1" x="18.02" y="28.33" width="14.5" height="7.63"/><rect class="cls-1" x="52.52" y="28.33" width="14.5" height="7.63" transform="translate(119.54 64.29) rotate(-180)"/><rect class="cls-1" x="24.52" y="58.21" width="6.25" height="8.75"/><rect class="cls-1" x="54.27" y="58.21" width="6.25" height="8.75" transform="translate(114.79 125.16) rotate(-180)"/><path class="cls-1" d="M42.46,61.58H22L20.64,50.33l2.25-3.62V23.21s3.64-5.13,19.57-5.13S61.52,23,61.52,23V46.83l2.87,3.25-1,11.5Z"/><path class="cls-1" d="M56.46,46.58H28.21V26.33s2.56-3,14.12-3c11.13,0,14.13,3,14.13,3Z"/><rect class="cls-2" x="26.96" y="52.83" width="4.94" height="2.37" rx="1.19"/><rect class="cls-2" x="52.83" y="52.83" width="4.94" height="2.37" rx="1.19" transform="translate(110.6 108.04) rotate(-180)"/><rect class="cls-2" x="36.14" y="51.27" width="12.69" height="2.75" rx="1.37"/><rect class="cls-2" x="38.39" y="55.52" width="8.06" height="2.69" rx="1.34"/></g></svg>