<svg xmlns="http://www.w3.org/2000/svg" viewBox="0 0 85.04 85.04"><defs><style>.cls-1{fill:#231f20;}</style></defs><title>현대관광아이콘_아트보드</title><g id="해외여행"><path class="cls-1" d="M59.52,46.94a10.21,10.21,0,0,1-5.39-.31l-5.79,2.54.11,1.43,2.33,1.93-2,2,1,5,1.11,1.22s-4.26,4.06-14.22,4.36l1.83-1.83.1-2.13,3.25-1.32.76-3,1.27-1.62-.5-1.52-3.15-1.53L29.65,55.07l2,1.82-1.11,1.73,1.11,5.59s-5-.61-11.27-7.32l-5.06.32a26.77,26.77,0,0,0,48.5-8.84L63,42.52S62.06,46.23,59.52,46.94Z"/><path class="cls-1" d="M15.43,44.3s-.61-6.3,2.13-11.38L18.07,38l3.66,2.64L23,42.52l4.67-1.68V39.62l5.59-1.52,5-4.77-1.63-2L38.19,28l-1.83-1.22L35.24,23l2.49-2.74s5.23.31,6.14,1L42.6,22.35v1.22l1.27,1.12L44.48,28,47.13,30l1,.21s3.66-4.68,8-2.24l-3.66-4.67a4.2,4.2,0,0,1-1.12-3.77A26.77,26.77,0,0,0,11,42.52c0,.66,0,1.31.07,2A23.61,23.61,0,0,0,15.43,44.3Z"/><path class="cls-1" d="M8.93,40.17S-6.16,52.94,14.21,53.34c0,0,16.46.41,38.3-10V38.61l-3.15-2.85A180.3,180.3,0,0,1,21.42,46.63S9.13,50,6.79,46.94C6.79,46.94,5.17,44.79,8.93,40.17Z"/><path class="cls-1" d="M81.36,25.35c-1.27-2.54-10.06,1.07-10.06,1.07L57.21,18.09,54.8,20l8.43,10.46L58.6,33.07l-5.43-2-2,1.32,4.72,4.73.26,6.55,2.49-.76,2-5.39,5.13-1.78L67.9,49.07l3.3-.7,2.9-15.86S82.63,27.89,81.36,25.35ZM77.73,29l-.3-1.53-1.12-1.37s1.5-.66,2.08.69A1.86,1.86,0,0,1,77.73,29Z"/></g></svg>