<svg xmlns="http://www.w3.org/2000/svg" viewBox="0 0 85.04 85.04"><defs><style>.cls-1{fill:#fff;}.cls-1,.cls-2{stroke:#231f20;stroke-miterlimit:10;stroke-width:2px;}.cls-2{fill:none;}.cls-3{fill:#231f20;}</style></defs><title>현대관광아이콘_아트보드</title><g id="제주여행"><rect class="cls-1" x="37.8" y="13.18" width="9.81" height="9.81" rx="2"/><path class="cls-1" d="M52.3,30.18H32.55c-1.1,0,1.88-.78,1.88-1.88l-3.88-7.5a2,2,0,0,1,2-2H52.3a2,2,0,0,1,2,2l-2.62,7.63C51.68,29.53,53.4,30.18,52.3,30.18Z"/><rect class="cls-1" x="23.05" y="26.18" width="38.5" height="22.5" rx="2"/><path class="cls-1" d="M38.93,60.43s4.37-3.13,8.12.75a13.66,13.66,0,0,0,8.31,3.37A10,10,0,0,0,59,63.73,19,19,0,0,1,63.29,52.3c8-9.37-2.77-13.37-2.77-13.37S46.2,32.8,42.43,32.8s-18.1,6.13-18.1,6.13-10.81,4-2.76,13.37a19.29,19.29,0,0,1,4.29,12C31.38,66.76,38.93,60.43,38.93,60.43Z"/><path class="cls-1" d="M59,63.73a10,10,0,0,1-3.66.82,13.66,13.66,0,0,1-8.31-3.37c-3.75-3.88-8.12-.75-8.12-.75s-7.55,6.33-13.07,3.85"/><path class="cls-2" d="M16.18,66.55s2.37-1.75,7.87,3.5,14.88-2.62,14.88-2.62,4.37-3.13,8.12.75a13.66,13.66,0,0,0,8.31,3.37c4.69,0,10.9-5.31,10.9-5.31a3,3,0,0,1,2.6,0"/><path class="cls-2" d="M16.18,59.55s2.37-1.75,7.87,3.5,14.88-2.62,14.88-2.62,4.37-3.13,8.12.75a13.66,13.66,0,0,0,8.31,3.37c4.69,0,10.9-5.31,10.9-5.31a3,3,0,0,1,2.6,0"/><line class="cls-2" x1="42.43" y1="32.8" x2="42.43" y2="59.24"/><circle class="cls-3" cx="36.05" cy="41.8" r="1.44"/><circle class="cls-3" cx="49.05" cy="41.8" r="1.44"/></g></svg>