<svg xmlns="http://www.w3.org/2000/svg" viewBox="0 0 85.04 85.04"><defs><style>.cls-1,.cls-2{fill:#fff;stroke:#231f20;stroke-width:2px;}.cls-1{stroke-linejoin:round;}.cls-2{stroke-miterlimit:10;}</style></defs><title>현대관광아이콘_아트보드</title><g id="허니문"><path class="cls-1" d="M18.66,68s25.59-13.08,25.59-29.5A31.2,31.2,0,0,0,30,42.44s-.17-5.17,7.08-8.92c0,0-2.08-3.08-13.08-2.75,0,0,3.41-6.83,15-3.75,0,0,.08-6.25-.67-7.58,0,0,6,.83,8,5.33,0,0,5.42-7.42,9.08-7.75a28.28,28.28,0,0,1-1.91,9.33s9.16-2.41,13.16,1.75a62.12,62.12,0,0,1-10.25,3.75s7.25,3.25,7.25,10.67c0,0-8.25-5-14.08-3.67,0,0-.92,22.34-18.33,29.17Z"/><path class="cls-2" d="M35.08,60.1c-8,0-14.7,3.36-16.7,7.92H51.79C49.78,63.46,43.07,60.1,35.08,60.1Z"/><line class="cls-2" x1="51.79" y1="68.02" x2="18.38" y2="68.02"/></g></svg>